<?xml version="1.0" encoding="utf-8"?>
<!-- Generator: Adobe Illustrator 16.0.4, SVG Export Plug-In . SVG Version: 6.00 Build 0)  -->
<!DOCTYPE svg PUBLIC "-//W3C//DTD SVG 1.1//EN" "http://www.w3.org/Graphics/SVG/1.1/DTD/svg11.dtd">
<svg version="1.1" id="Layer_1" xmlns="http://www.w3.org/2000/svg" xmlns:xlink="http://www.w3.org/1999/xlink" x="0px" y="0px"
	 width="250px" height="250px" viewBox="0 0 250 250" style="enable-background:new 0 0 250 250;" xml:space="preserve">
<g>
	<circle fill="#3163AF" cx="125" cy="125" r="125"/>
	<path fill="#1D529C" d="M240.5,172.8L140.4,72.7c0,0,24.9,40.7,0.9,66.5c-21.5,23.2-59.6,10.4-59.6,10.4l90.9,90.9
		C203.3,227.9,227.8,203.4,240.5,172.8z"/>
	<path fill-rule="evenodd" clip-rule="evenodd" fill="#BCBCBB" d="M188.2,176.7l-35.2-35.8c-2.2-2.3-5.9-2.3-8.1,0l-5.4,5.5c-2.2,2.3-2.2,6,0,8.3l35.2,35.8
		c2.2,2.3,5.9,2.3,8.1,0l5.4-5.5C190.5,182.7,190.5,179,188.2,176.7z"/>
	<circle fill-rule="evenodd" clip-rule="evenodd" fill="#5281C2" cx="107.9" cy="109.2" r="45"/>
	<path fill-rule="evenodd" clip-rule="evenodd" fill="#ECEDF0" d="M157.1,145.1l-9.4-9.5c12.3-18.9,10.3-44.7-6.1-61.3c-18.7-19-49-19-67.7,0c-18.7,19-18.7,49.9,0,68.9
		c16.4,16.7,41.6,18.7,60.2,6.2l9.4,9.5L157.1,145.1z M79.8,137.3c-15.5-15.8-15.5-41.3,0-57.1c15.5-15.8,40.6-15.8,56.1,0
		c15.5,15.8,15.5,41.3,0,57.1C120.4,153,95.3,153,79.8,137.3z"/>
</g>
</svg>
